<?xml version="1.0" standalone="no"?>
<!DOCTYPE svg PUBLIC "-//W3C//DTD SVG 20010904//EN"
 "http://www.w3.org/TR/2001/REC-SVG-20010904/DTD/svg10.dtd">
<svg version="1.0" xmlns="http://www.w3.org/2000/svg"
 width="900.000000pt" height="900.000000pt" viewBox="0 0 900.000000 900.000000"
 preserveAspectRatio="xMidYMid meet">
<metadata>
Created by potrace 1.11, written by Peter Selinger 2001-2013
</metadata>
<g transform="translate(0.000000,900.000000) scale(0.100000,-0.100000)"
fill="#000000" stroke="none">
<path d="M0 4500 l0 -4500 4500 0 4500 0 0 4500 0 4500 -4500 0 -4500 0 0
-4500z m2660 3681 c0 -6 21 -13 48 -16 114 -16 304 -80 477 -159 130 -60 146
-66 173 -65 15 0 47 10 72 22 53 26 113 107 131 180 l13 47 52 0 c57 0 72 -14
49 -46 -10 -15 -11 -55 -4 -189 4 -93 13 -208 18 -255 6 -46 11 -119 11 -161
0 -41 4 -122 9 -180 6 -57 12 -159 16 -226 7 -161 -6 -162 -64 -5 -129 346
-265 552 -463 702 -147 111 -293 177 -488 219 -142 31 -387 30 -536 -3 -315
-70 -562 -233 -732 -483 -119 -175 -197 -366 -262 -642 -52 -220 -69 -665 -36
-926 72 -564 283 -970 617 -1187 71 -46 116 -70 239 -128 8 -4 42 -15 75 -24
33 -10 73 -22 89 -27 67 -21 249 -42 366 -42 124 0 215 10 340 39 199 47 367
140 542 302 63 59 248 271 308 355 37 52 63 59 101 28 l23 -18 -31 -16 c-18
-10 -62 -61 -110 -129 -233 -329 -439 -512 -709 -630 -142 -63 -262 -94 -469
-123 -189 -26 -384 -15 -632 36 -297 61 -552 198 -769 414 -155 155 -247 281
-344 474 -118 236 -178 454 -207 760 -13 147 -14 204 -5 360 6 102 15 213 21
246 14 87 67 270 92 317 5 10 9 23 9 29 0 6 27 65 60 131 211 422 529 721 955
898 94 38 281 91 378 105 20 3 37 10 37 15 0 6 105 10 270 10 162 0 270 -4
270 -9z m3390 -1845 c0 -7 -6 -25 -12 -38 -13 -24 -13 -40 9 -517 6 -126 5
-168 -4 -180 -12 -14 -14 -14 -28 3 -8 11 -15 34 -15 52 0 52 -29 153 -67 233
-46 97 -151 204 -244 250 -133 65 -175 71 -555 71 -259 0 -344 -3 -357 -13
-17 -12 -18 -97 -17 -1441 0 -883 4 -1478 11 -1555 10 -125 43 -254 76 -292 7
-8 13 -20 13 -26 0 -15 54 -60 99 -82 56 -29 172 -51 264 -51 64 0 86 -3 90
-14 13 -34 -21 -41 -177 -37 -264 8 -1056 6 -1201 -2 -146 -9 -190 -1 -190 33
0 12 22 16 105 21 266 14 366 89 423 319 21 84 21 102 27 1595 5 1463 4 1511
-14 1528 -17 15 -48 17 -353 17 -306 0 -343 -2 -425 -21 -159 -37 -285 -143
-362 -304 -37 -76 -66 -177 -66 -230 0 -46 -9 -65 -30 -65 -26 0 -28 14 -19
140 5 63 13 213 19 334 8 187 7 222 -5 239 -8 12 -15 27 -15 34 0 11 291 13
1510 13 1280 0 1510 -2 1510 -14z m2090 -1862 c0 -8 -5 -24 -11 -35 -10 -20 1
-409 17 -601 6 -69 5 -78 -11 -84 -24 -10 -41 16 -50 74 -11 76 -73 252 -106
304 -64 100 -174 172 -308 202 -64 14 -155 16 -693 16 -408 0 -626 -4 -639
-10 -19 -10 -19 -29 -19 -723 l0 -713 24 -33 24 -32 463 1 c504 1 581 7 684
55 29 14 67 41 84 60 70 80 156 309 134 358 -16 36 -6 47 48 47 57 0 70 -16
45 -52 -14 -20 -16 -86 -16 -569 0 -450 -2 -549 -14 -558 -21 -18 -37 10 -46
81 -19 149 -53 230 -127 299 -60 56 -122 86 -226 110 -73 17 -132 19 -557 19
-420 0 -478 -2 -498 -16 l-23 -16 3 -717 3 -717 33 -66 c42 -83 83 -121 147
-139 68 -19 892 -20 1040 -1 238 30 348 90 504 271 69 82 180 252 253 391 l34
65 62 3 c71 3 78 -7 27 -40 -43 -28 -40 -21 -190 -465 -67 -199 -128 -369
-135 -378 -11 -13 -148 -15 -1219 -15 -859 0 -1245 -3 -1342 -12 -161 -14
-232 -6 -237 28 -3 20 3 21 105 27 151 9 230 33 311 94 43 32 72 81 108 178
l29 80 3 1439 c2 1254 1 1449 -12 1513 -19 91 -46 144 -89 177 -62 47 -104 58
-242 63 -187 6 -215 10 -215 34 0 19 22 19 1420 19 1282 0 1420 -2 1420 -16z"/>
</g>
</svg>
